<svg xmlns="http://www.w3.org/2000/svg">

    <symbol viewBox="0 0 57 36" id="logo">      
      <g clip-path="url(#clip0_805_746)">
      <path d="M21.8324 -1.53723e-06L46.9541 25.1149L57 25.1149L31.8736 -1.09831e-06L21.8324 -1.53723e-06Z" />
      <path d="M7.62939e-06 -1.45296e-06L25.1217 25.1149L33.2399 25.1149L8.11813 -1.09811e-06L7.62939e-06 -1.45296e-06Z" />
      <path d="M21.8324 10.8804L46.9542 35.9999L55.3951 35.9999L30.2734 10.8804L21.8324 10.8804Z" />
      <path d="M33.5627 35.9999L8.44101 10.8804L3.05176e-05 10.8804L25.1218 35.9999L33.5627 35.9999Z" />
      </g>
      <defs>
      <clipPath id="clip0_805_746">
      <rect width="36" height="57" fill="white" transform="translate(57) rotate(90)"/>
      </clipPath>
      </defs>
    </symbol>

    <symbol viewBox="0 0 24 24" id="arrow-bot">
      <path d="M5.70711 9.71069C5.31658 10.1012 5.31658 10.7344 5.70711 11.1249L10.5993 16.0123C11.3805 16.7927 12.6463 16.7924 13.4271 16.0117L18.3174 11.1213C18.708 10.7308 18.708 10.0976 18.3174 9.70708C17.9269 9.31655 17.2937 9.31655 16.9032 9.70708L12.7176 13.8927C12.3271 14.2833 11.6939 14.2832 11.3034 13.8927L7.12132 9.71069C6.7308 9.32016 6.09763 9.32016 5.70711 9.71069Z" />
    </symbol>

    <symbol viewBox="0 0 76 24" id="portfolio-defu">
      <path d="M17.0106 0.159574V23.8404H14.8404V20.5213C14.1596 21.6489 13.2553 22.5106 12.1277 23.1064C11.0213 23.7021 9.76596 24 8.3617 24C6.78723 24 5.3617 23.6383 4.08511 22.9149C2.80851 22.1915 1.80851 21.1808 1.08511 19.883C0.361702 18.5851 0 17.1064 0 15.4468C0 13.7872 0.361702 12.3085 1.08511 11.0106C1.80851 9.71277 2.80851 8.71277 4.08511 8.01064C5.3617 7.28723 6.78723 6.92553 8.3617 6.92553C9.7234 6.92553 10.9468 7.21277 12.0319 7.78723C13.1383 8.34043 14.0426 9.15957 14.7447 10.2447V0.159574H17.0106ZM8.55319 21.9894C9.7234 21.9894 10.7766 21.7234 11.7128 21.1915C12.6702 20.6383 13.4149 19.8617 13.9468 18.8617C14.5 17.8617 14.7766 16.7234 14.7766 15.4468C14.7766 14.1702 14.5 13.0319 13.9468 12.0319C13.4149 11.0319 12.6702 10.266 11.7128 9.73404C10.7766 9.18085 9.7234 8.90425 8.55319 8.90425C7.3617 8.90425 6.28723 9.18085 5.32979 9.73404C4.39362 10.266 3.64894 11.0319 3.09574 12.0319C2.56383 13.0319 2.29787 14.1702 2.29787 15.4468C2.29787 16.7234 2.56383 17.8617 3.09574 18.8617C3.64894 19.8617 4.39362 20.6383 5.32979 21.1915C6.28723 21.7234 7.3617 21.9894 8.55319 21.9894Z" />
      <path d="M40.218 16.1489H26.1754C26.3031 17.8936 26.9733 19.3085 28.1861 20.3936C29.3988 21.4574 30.9307 21.9894 32.7818 21.9894C33.8243 21.9894 34.7818 21.8085 35.6541 21.4468C36.5265 21.0638 37.2818 20.5106 37.9201 19.7872L39.1967 21.2553C38.452 22.1489 37.5158 22.8298 36.3882 23.2979C35.2818 23.766 34.0584 24 32.718 24C30.9946 24 29.4626 23.6383 28.1222 22.9149C26.8031 22.1702 25.7712 21.1489 25.0265 19.8511C24.2818 18.5532 23.9095 17.0851 23.9095 15.4468C23.9095 13.8085 24.2605 12.3404 24.9626 11.0426C25.6861 9.74468 26.6648 8.73404 27.8988 8.01064C29.1541 7.28723 30.5584 6.92553 32.1116 6.92553C33.6648 6.92553 35.0584 7.28723 36.2924 8.01064C37.5265 8.73404 38.4946 9.74468 39.1967 11.0426C39.8988 12.3191 40.2499 13.7872 40.2499 15.4468L40.218 16.1489ZM32.1116 8.87234C30.4946 8.87234 29.1329 9.39362 28.0265 10.4362C26.9414 11.4574 26.3243 12.7979 26.1754 14.4574H38.0797C37.9307 12.7979 37.3031 11.4574 36.1967 10.4362C35.1116 9.39362 33.7499 8.87234 32.1116 8.87234Z" />
      <path d="M52.6949 1.91489C51.7162 1.91489 50.9715 2.18085 50.4609 2.71276C49.9715 3.24468 49.7268 4.03192 49.7268 5.07447V7.05319H54.897V8.96808H49.7906V23.8404H47.5247V8.96808H44.5247V7.05319H47.5247V4.97872C47.5247 3.44681 47.9609 2.23404 48.8332 1.34043C49.7268 0.446808 50.9821 0 52.5992 0C53.2375 0 53.8545 0.0957447 54.4502 0.287234C55.046 0.457447 55.546 0.712766 55.9502 1.05319L55.1843 2.74468C54.5247 2.19149 53.6949 1.91489 52.6949 1.91489Z" />
      <path d="M75.3639 7.05319V23.8404H73.1937V20.7766C72.598 21.7979 71.7788 22.5957 70.7363 23.1702C69.6937 23.7234 68.5022 24 67.1618 24C64.9703 24 63.2363 23.3936 61.9597 22.1808C60.7043 20.9468 60.0767 19.1489 60.0767 16.7872V7.05319H62.3426V16.5638C62.3426 18.3298 62.7788 19.6702 63.6512 20.5851C64.5235 21.5 65.7682 21.9574 67.3852 21.9574C69.1512 21.9574 70.5448 21.4255 71.566 20.3617C72.5873 19.2766 73.098 17.7766 73.098 15.8617V7.05319H75.3639Z" />
    </symbol>

    <symbol viewBox="0 0 88 36" id="portfolio-recipe">
      <path d="M0 16.3075V21.8486C24.2111 9.88858 32.2476 48.042 81.3907 24.8346C83.1427 24.0102 84.6367 22.6368 85.6875 20.885C86.738 19.1331 87.2993 17.0798 87.3011 14.9797C33.6846 43.7578 25.3982 3.81533 1.14704 14.4446C0.808749 14.593 0.51861 14.8498 0.314126 15.1819C0.10964 15.514 0.000217833 15.9061 0 16.3075Z" />
      <path d="M87.0717 2.3827C70.9826 -5.56495 62.0363 8.61673 43.4224 12.2166C53.9036 14.2435 67.4524 12.9138 87.0717 2.3827Z"/>
      <path d="M0 12.1483C24.9903 -0.19848 32.7491 40.8488 86.2634 12.6999C86.5736 12.5369 86.8358 12.2805 87.0196 11.9603C87.2031 11.64 87.3008 11.2689 87.3011 10.8901V5.27842C38.6968 31.3658 27.3438 0.981378 7.57983 2.99086C5.50828 3.20083 3.58256 4.25632 2.18033 5.95043C0.7781 7.6445 0.00050283 9.85496 0 12.1483Z" />
      <path d="M0.22998 24.9413C16.3158 16.9936 25.2636 31.1753 43.8772 34.7758C33.3936 36.8018 19.8475 35.4724 0.22998 24.9413Z"/>
    </symbol>

    <symbol viewBox="0 0 32 32" id="portfolio-leasi">
      <path d="M16 18.4564C17.3502 18.4564 18.4448 17.3628 18.4448 16.0139C18.4448 14.6649 17.3502 13.5713 16 13.5713C14.6497 13.5713 13.5552 14.6649 13.5552 16.0139C13.5552 17.3628 14.6497 18.4564 16 18.4564Z" />
      <path d="M15.9998 22.753C14.2086 22.753 12.5175 22.0488 11.2384 20.7708C9.95882 19.4925 9.25439 17.8029 9.25439 16.0137C9.25439 14.2245 9.95921 12.5346 11.2384 11.2566C12.5179 9.9782 14.209 9.27441 15.9998 9.27441C17.7907 9.27441 19.4822 9.9782 20.7613 11.2566C22.0409 12.535 22.7453 14.2241 22.7453 16.0137C22.7453 16.4489 22.3925 16.8014 21.9569 16.8014C21.5213 16.8014 21.1685 16.4485 21.1685 16.0137C21.1685 13.1663 18.8499 10.8494 15.9995 10.8494C13.149 10.8494 10.8304 13.1659 10.8304 16.0137C10.8304 18.8615 13.149 21.1781 15.9995 21.1781C17.538 21.1781 18.9855 20.5007 19.9706 19.32C20.2493 18.9856 20.7463 18.9407 21.081 19.2191C21.4157 19.4976 21.4606 19.9942 21.1819 20.3286C19.8965 21.8696 18.0075 22.7538 15.9995 22.7538L15.9998 22.753Z" />
      <path d="M15.9953 27.4721C14.5462 27.4721 13.1323 27.2075 11.79 26.6853C10.3552 26.1268 9.06892 25.2978 7.96714 24.221C7.65573 23.917 7.65021 23.4184 7.95453 23.1073C8.25885 22.7961 8.7579 22.7906 9.06931 23.0947C12.9774 26.9125 19.2655 26.8424 23.0873 22.9383C24.925 21.0605 25.9207 18.5624 25.8912 15.9036C25.8616 13.2449 24.8099 10.7696 22.9308 8.93315C19.0227 5.11492 12.7345 5.18542 8.91282 9.0895C6.85 11.1973 5.83849 14.0881 6.13887 17.0209C6.18302 17.4538 5.86806 17.8405 5.43484 17.8846C5.00162 17.9287 4.61452 17.6137 4.57037 17.1812C4.22269 13.782 5.39463 10.4313 7.78581 7.98834C8.86315 6.88757 10.1305 6.03019 11.5527 5.43944C12.9233 4.87035 14.3767 4.5734 15.8723 4.55646C17.3691 4.53913 18.8272 4.80418 20.2104 5.34256C21.6453 5.90101 22.9315 6.73004 24.0333 7.80639C25.1351 8.88274 25.9933 10.1489 26.5845 11.5699C27.1542 12.9392 27.4514 14.3913 27.4683 15.8855C27.4849 17.3797 27.2204 18.8377 26.6815 20.2197C26.1225 21.6532 25.2928 22.9383 24.215 24.0391C23.1373 25.1399 21.8704 25.9972 20.4481 26.588C19.0775 27.1571 17.6241 27.454 16.1285 27.471C16.084 27.4714 16.0398 27.4718 15.9953 27.4718V27.4721Z" />
      <path d="M15.9931 31.9992C13.9709 31.9992 11.9979 31.6302 10.1251 30.9012C8.12341 30.1222 6.32943 28.9655 4.79247 27.4642C3.2555 25.9625 2.05833 24.1966 1.23407 22.2148C0.439378 20.3039 0.024291 18.2776 0.00103353 16.1926C-0.0222239 14.1077 0.347136 12.0727 1.09926 10.1445C1.87898 8.14463 3.03672 6.35229 4.53939 4.81672C4.84371 4.50559 5.34315 4.50008 5.65417 4.80412C5.96559 5.10816 5.97111 5.60715 5.66679 5.91789C0.0948518 11.6108 0.197343 20.771 5.89503 26.3378C8.63586 29.0155 12.2826 30.4652 16.1614 30.4231C20.0411 30.3798 23.6535 28.8481 26.3336 26.1098C29.0137 23.3715 30.4659 19.7289 30.4226 15.8528C30.3792 11.9766 28.8462 8.36754 26.1054 5.68986C23.0295 2.6845 18.8104 1.21156 14.5306 1.64872C14.0974 1.69282 13.7103 1.37815 13.6662 0.945326C13.622 0.512501 13.937 0.125755 14.3702 0.0816455C16.6912 -0.155443 19.0832 0.126149 21.2879 0.896096C23.4927 1.66604 25.5397 2.93419 27.2075 4.56388C28.7445 6.06557 29.9417 7.83153 30.7659 9.8137C31.5606 11.7246 31.9757 13.7509 31.999 15.8358C32.0222 17.9208 31.6529 19.9557 30.9007 21.884C30.121 23.8839 28.9633 25.6762 27.4606 27.2118C25.9579 28.7473 24.19 29.9434 22.206 30.7669C20.2934 31.5609 18.2652 31.9756 16.1784 31.9988C16.1165 31.9996 16.0546 32 15.9927 32L15.9931 31.9992Z" />
    </symbol>

    <symbol viewBox="0 0 32 32" id="portfolio-health">
      <path d="M26.1383 9.02127C26.6884 8.87387 27.1748 8.54963 27.5225 8.09854C27.8701 7.64745 28.0598 7.09453 28.0622 6.52503V6.51826C28.0622 5.8338 27.7904 5.17737 27.3063 4.69338C26.8223 4.2094 26.1658 3.9375 25.4815 3.9375H25.4748C24.9053 3.93999 24.3526 4.12969 23.9016 4.47734C23.4506 4.82499 23.1263 5.31132 22.979 5.86137C22.5574 7.38859 21.6464 8.73533 20.3859 9.69507C19.1252 10.6548 17.5847 11.1745 16.0003 11.1745C14.416 11.1745 12.8754 10.6548 11.6148 9.69507C10.3542 8.73533 9.44324 7.38859 9.02162 5.86137C8.87414 5.31137 8.54988 4.82511 8.09883 4.47754C7.64778 4.12996 7.09495 3.94035 6.52552 3.93793H6.51875C5.8343 3.93793 5.17786 4.20983 4.69387 4.69382C4.20989 5.1778 3.93799 5.83423 3.93799 6.5187V6.52546C3.94051 7.09489 4.1302 7.64771 4.47786 8.09872C4.82551 8.54971 5.31183 8.87388 5.86186 9.02127C7.38908 9.44288 8.73583 10.3538 9.69555 11.6144C10.6553 12.875 11.175 14.4156 11.175 16C11.175 17.5843 10.6553 19.1249 9.69555 20.3855C8.73583 21.6462 7.38908 22.5571 5.86186 22.9787C5.31186 23.1261 4.82558 23.4502 4.47796 23.9012C4.13033 24.3522 3.94065 24.905 3.93813 25.4743V25.4811C3.93813 26.1656 4.21003 26.8219 4.69402 27.306C5.17802 27.79 5.83443 28.0619 6.5189 28.0619H6.52566C7.09511 28.0594 7.64791 27.8696 8.09892 27.522C8.54991 27.1743 8.87408 26.688 9.02147 26.138C9.44309 24.6108 10.3541 23.2641 11.6146 22.3043C12.8752 21.3445 14.4158 20.8248 16.0002 20.8248C17.5845 20.8248 19.1251 21.3445 20.3857 22.3043C21.6462 23.2641 22.5573 24.6108 22.9789 26.138C23.1262 26.688 23.4504 27.1744 23.9014 27.5222C24.3524 27.8698 24.9053 28.0596 25.4748 28.062H25.4816C26.166 28.062 26.8224 27.79 27.3064 27.306C27.7904 26.8221 28.0624 26.1656 28.0624 25.4812V25.4743C28.0599 24.9048 27.8701 24.3521 27.5225 23.9011C27.1748 23.4501 26.6885 23.126 26.1385 22.9785C24.6113 22.5569 23.2646 21.646 22.3049 20.3854C21.345 19.1247 20.8253 17.5842 20.8253 15.9998C20.8253 14.4155 21.345 12.8749 22.3049 11.6143C23.2646 10.3537 24.6113 9.44275 26.1385 9.02113L26.1383 9.02127Z" />
      <path d="M3.37576 1.52742C3.45877 1.60999 3.56545 1.66463 3.68096 1.68375C3.79648 1.70288 3.91507 1.68553 4.02027 1.63412C4.98007 1.1706 6.06002 1.01622 7.11125 1.19225C8.16249 1.36829 9.13323 1.86609 9.88966 2.61701C9.99394 2.72208 10.1348 2.78267 10.2828 2.78605C10.4308 2.78944 10.5744 2.73535 10.6833 2.63515C10.7375 2.58347 10.7807 2.5215 10.8106 2.45286C10.8404 2.38422 10.8563 2.31031 10.8572 2.23546C10.858 2.16061 10.8439 2.08636 10.8157 2.01704C10.7874 1.94772 10.7456 1.88475 10.6927 1.83182C9.77027 0.911661 8.58434 0.301385 7.2994 0.0856567C6.01448 -0.130072 4.69426 0.0594441 3.52191 0.627911C3.4421 0.66749 3.37285 0.72553 3.31995 0.797218C3.26705 0.868905 3.232 0.952174 3.2177 1.04012C3.20342 1.12806 3.2103 1.21814 3.23779 1.30289C3.26528 1.38764 3.31258 1.46461 3.37576 1.52742Z" />
      <path d="M0.630084 3.5179C0.0623112 4.68648 -0.128824 6.00245 0.08305 7.28426C0.294923 8.56609 0.899363 9.75056 1.81298 10.6743C1.90905 10.7752 2.03843 10.838 2.17719 10.8509C2.31594 10.8639 2.45469 10.8261 2.56778 10.7447C2.63184 10.6963 2.68479 10.6347 2.72303 10.5641C2.76128 10.4935 2.78394 10.4155 2.78947 10.3354C2.79502 10.2553 2.78331 10.1749 2.75516 10.0997C2.72699 10.0245 2.68303 9.95623 2.62624 9.89947C1.87148 9.14286 1.37069 8.17026 1.19327 7.11639C1.01585 6.06252 1.17058 4.97956 1.63601 4.01755C1.68781 3.91223 1.70544 3.79338 1.68647 3.67757C1.6675 3.56174 1.61286 3.45474 1.53018 3.37146C1.46731 3.30822 1.39028 3.26089 1.30547 3.23338C1.22065 3.2059 1.1305 3.19901 1.0425 3.21333C0.954492 3.22765 0.87117 3.26274 0.799444 3.31572C0.727721 3.36868 0.669659 3.438 0.630084 3.5179Z" />
      <path d="M27.9805 30.3654C27.0203 30.8291 25.9401 30.9834 24.8885 30.807C23.8371 30.6308 22.8662 30.1326 22.1098 29.3812C22.0057 29.2767 21.8653 29.2164 21.7178 29.213C21.5703 29.2096 21.4273 29.2634 21.3186 29.3632C21.2641 29.4148 21.2206 29.4768 21.1905 29.5455C21.1606 29.6142 21.1446 29.6882 21.1436 29.7632C21.1426 29.8383 21.1567 29.9127 21.1849 29.9821C21.2132 30.0517 21.2551 30.1147 21.308 30.1677C22.2305 31.0878 23.4164 31.6981 24.7014 31.9139C25.9862 32.1296 27.3065 31.9401 28.4788 31.3716C28.5586 31.332 28.6279 31.274 28.6809 31.2023C28.7337 31.1306 28.7687 31.0474 28.7829 30.9594C28.7972 30.8714 28.7903 30.7813 28.7628 30.6966C28.7353 30.6118 28.6879 30.5349 28.6247 30.4721C28.5418 30.3896 28.4351 30.335 28.3196 30.3159C28.2042 30.2967 28.0856 30.314 27.9805 30.3654Z" />
      <path d="M29.3637 21.318C29.2639 21.4267 29.2101 21.5697 29.2135 21.7173C29.2168 21.8647 29.2772 22.0053 29.3817 22.1092C30.1336 22.8662 30.632 23.838 30.8078 24.8903C30.9838 25.9427 30.8285 27.0237 30.3637 27.9841C30.3122 28.0894 30.2948 28.208 30.3138 28.3236C30.3329 28.4393 30.3875 28.5461 30.4702 28.6292C30.5329 28.6924 30.6098 28.7396 30.6945 28.7673C30.7792 28.7948 30.8692 28.8017 30.9571 28.7874C31.045 28.7732 31.1283 28.7383 31.1999 28.6855C31.2716 28.6326 31.3298 28.5635 31.3694 28.4838C31.9396 27.3111 32.1304 25.99 31.9153 24.704C31.7001 23.4178 31.0897 22.2308 30.1689 21.3075C30.1159 21.2544 30.0527 21.2125 29.9832 21.1841C29.9136 21.1557 29.8392 21.1416 29.7642 21.1426C29.689 21.1436 29.615 21.1596 29.5462 21.1899C29.4773 21.22 29.4154 21.2634 29.3637 21.318Z" />
      <path d="M30.3648 4.0183C30.8291 4.97854 30.9839 6.05924 30.8078 7.11122C30.6317 8.16319 30.1334 9.13457 29.3817 9.89129C29.2772 9.9953 29.2168 10.1357 29.2135 10.2832C29.2101 10.4307 29.2639 10.5737 29.3637 10.6824C29.4153 10.7368 29.4773 10.7803 29.546 10.8104C29.6147 10.8404 29.6887 10.8564 29.7637 10.8574C29.8387 10.8584 29.913 10.8444 29.9826 10.8162C30.052 10.7879 30.1152 10.7461 30.1682 10.693C31.0887 9.77018 31.6993 8.58361 31.9147 7.29803C32.1302 6.01247 31.9402 4.6917 31.3708 3.51909C31.3312 3.4393 31.2731 3.37013 31.2013 3.31728C31.1296 3.26442 31.0464 3.22943 30.9584 3.2152C30.8706 3.20098 30.7805 3.2079 30.6958 3.23544C30.611 3.26297 30.5341 3.3103 30.4713 3.37351C30.3888 3.45658 30.3341 3.56332 30.3149 3.67887C30.2959 3.79444 30.3133 3.91308 30.3648 4.0183Z" />
      <path d="M22.1093 2.61846C22.866 1.86672 23.8373 1.36841 24.8893 1.1923C25.9414 1.01619 27.022 1.17098 27.9823 1.63529C28.0875 1.68682 28.2062 1.70426 28.3217 1.68518C28.4373 1.66612 28.544 1.61147 28.6271 1.52888C28.6903 1.46611 28.7377 1.38917 28.7652 1.30445C28.7927 1.21973 28.7996 1.12966 28.7853 1.04173C28.7712 0.953788 28.7362 0.87051 28.6834 0.798798C28.6305 0.727085 28.5613 0.669003 28.4815 0.629368C27.3088 0.0600108 25.9882 -0.130111 24.7026 0.0853997C23.417 0.300911 22.2304 0.911357 21.3076 1.83198C21.2546 1.88501 21.2127 1.94811 21.1844 2.01757C21.1562 2.08705 21.1421 2.16146 21.1431 2.23644C21.1441 2.31143 21.1601 2.38545 21.1901 2.45415C21.2202 2.52287 21.2636 2.58485 21.3181 2.63646C21.4268 2.73619 21.5698 2.79 21.7174 2.78664C21.8648 2.78329 22.0052 2.72303 22.1093 2.61846Z" />
      <path d="M9.89129 29.3814C9.13459 30.133 8.1632 30.6314 7.11123 30.8075C6.05924 30.9836 4.97855 30.8288 4.0183 30.3644C3.91309 30.313 3.79444 30.2956 3.67888 30.3146C3.56332 30.3337 3.45657 30.3884 3.37351 30.4709C3.31031 30.5337 3.26298 30.6106 3.23545 30.6954C3.20792 30.7801 3.20097 30.8702 3.2152 30.9581C3.22944 31.046 3.26443 31.1293 3.31728 31.201C3.37012 31.2727 3.43931 31.3309 3.51908 31.3705C4.69169 31.9398 6.01247 32.1299 7.29804 31.9143C8.58362 31.6989 9.77019 31.0884 10.693 30.1678C10.7461 30.1149 10.7879 30.0516 10.8162 29.9822C10.8444 29.9128 10.8584 29.8384 10.8574 29.7634C10.8564 29.6884 10.8404 29.6143 10.8104 29.5457C10.7803 29.477 10.7368 29.4149 10.6824 29.3634C10.5737 29.2636 10.4307 29.2097 10.2832 29.213C10.1357 29.2165 9.99528 29.2767 9.89129 29.3814Z" />
      <path d="M1.63544 27.9818C1.17106 27.0215 1.01623 25.9409 1.19232 24.8889C1.3684 23.8369 1.86672 22.8655 2.61847 22.1088C2.72302 22.0047 2.7833 21.8643 2.78665 21.7169C2.79001 21.5693 2.73618 21.4263 2.63647 21.3176C2.58485 21.2631 2.52286 21.2197 2.45416 21.1896C2.38545 21.1596 2.31142 21.1436 2.23645 21.1426C2.16147 21.1416 2.08704 21.1557 2.01758 21.184C1.94812 21.2122 1.88501 21.2541 1.83199 21.3071C0.911361 22.2299 0.30091 23.4165 0.0853997 24.7021C-0.130111 25.9877 0.0600108 27.3084 0.629368 28.481C0.669001 28.5608 0.727085 28.6301 0.798797 28.6829C0.870511 28.7357 0.953788 28.7707 1.04173 28.7848C1.12966 28.7991 1.21973 28.7922 1.30445 28.7647C1.38917 28.7372 1.4661 28.6898 1.52889 28.6266C1.61146 28.5435 1.6661 28.4368 1.6852 28.3212C1.7043 28.2057 1.6869 28.0871 1.63544 27.9818Z" />
    </symbol>

    <symbol viewBox="0 0 72 84" id="work-svg">
      <path d="M49.46 62.895H10.54C-3.39 62.895 -7.625 58.66 -7.625 44.73V22.54C-7.625 8.61 -3.39 4.375 10.54 4.375H49.425C63.355 4.375 67.59 8.61 67.59 22.54V44.695C67.625 58.66 63.39 62.895 49.46 62.895ZM10.54 9.625C-0.450001 9.625 -2.375 11.55 -2.375 22.54V44.695C-2.375 55.685 -0.450001 57.61 10.54 57.61H49.425C60.415 57.61 62.34 55.685 62.34 44.695V22.54C62.34 11.55 60.415 9.625 49.425 9.625H10.54Z"/>
      <path d="M30 79.6245C28.565 79.6245 27.375 78.4345 27.375 76.9995V60.2695C27.375 58.8345 28.565 57.6445 30 57.6445C31.435 57.6445 32.625 58.8345 32.625 60.2695V76.9995C32.625 78.4345 31.435 79.6245 30 79.6245Z"/>
      <path d="M65 48.125H-5C-6.435 48.125 -7.625 46.935 -7.625 45.5C-7.625 44.065 -6.435 42.875 -5 42.875H65C66.435 42.875 67.625 44.065 67.625 45.5C67.625 46.935 66.435 48.125 65 48.125Z"/>
      <path d="M45.75 79.625H14.25C12.815 79.625 11.625 78.435 11.625 77C11.625 75.565 12.815 74.375 14.25 74.375H45.75C47.185 74.375 48.375 75.565 48.375 77C48.375 78.435 47.185 79.625 45.75 79.625Z"/>
    </symbol>

    <symbol viewBox="0 0 313 682" id="work-snace-360">
      <path d="M162.952 5.50004C186.799 1.00004 211.639 3.51071e-05 235.486 2.00004C253.371 3.00004 272.249 3.00004 289.141 13C290.134 14 292.121 13 293.115 14C302.057 20 309.013 29 309.013 39C310.006 74 280.198 98 256.351 121C254.364 123 251.383 124 249.396 126C248.403 127 246.415 127 245.422 128C244.428 129 243.434 130 242.441 131C239.46 133 237.473 133 234.492 135C233.498 136 232.505 137 231.511 138C175.869 170 106.316 155 62.5974 113C51.6677 113 40.738 119 30.8019 123C29.8083 124 28.8147 125 27.8211 126C16.8914 132 8.94247 142 3.97442 153C-2.14277e-05 162 -2.14277e-05 171 1.9872 181C6.95525 204 18.8786 223 34.7763 240C35.7699 241 35.7699 243 36.7636 244C53.6549 263 73.5271 278 98.3674 286C117.246 291 136.125 293 155.003 290C197.728 283 236.479 263 268.275 234C276.224 236 282.185 244 288.147 250C290.134 252 291.128 255 292.121 257C293.115 258 294.109 259 295.102 260C302.057 272 306.032 284 308.019 297C311 326 301.064 352 284.173 376C282.185 378 281.192 380 279.204 383C276.224 386 273.243 390 270.262 393C207.665 396 145.067 391 81.476 382C68.5591 381 54.6485 378 43.7188 371C40.738 364 29.8083 363 25.8338 368C5.96164 384 6.95525 412 7.94886 435C9.93608 459 13.9105 482 22.853 504C26.8275 514 33.7827 521 42.7252 528C53.6549 536 66.5719 539 79.4888 540C148.048 548 212.633 523 274.236 497C279.204 500 283.179 503 286.16 507C287.153 510 289.141 512 291.128 514C319.942 560 297.089 614 268.275 653C228.53 694 163.946 684 115.855 663.5" stroke="#151515" stroke-dasharray="16 16"/>
    </symbol>

    <symbol viewBox="0 0 872 496" id="work-snace-768">
      <path d="M213.5 14.5C239.667 6.66666 303.1 -6.00001 347.5 5.99999C391.9 18 613.667 27.6667 719 31C767.333 29.5 865.4 61.8 871 203C876.6 344.2 481.333 261.833 283 203C180.667 179.333 -18.7999 184.5 2.00006 394.5C39.8334 446.833 203.7 535.8 556.5 473" stroke="#151515" stroke-dasharray="14 14"/>
    </symbol>

    <symbol viewBox="0 0 1283 259" id="work-snace-1440">
      <path d="M16.0638 27.5587C97.0314 7.51687 329.578 -20.5416 612.023 27.5587C894.469 75.6589 1131.72 47.6004 1215.04 27.5587C1265.57 60.7947 1336.31 150.215 1215.04 242.006C1090.61 255.868 795.801 273.471 612.023 232.987C428.246 192.503 128.1 216.119 1 232.987" stroke="#151515" stroke-dasharray="14 14"/>
    </symbol>

    <symbol viewBox="0 0 448 512" id="icon3">
    </symbol>

</svg>
 


<svg width="872" height="496" viewBox="0 0 872 496" fill="none" xmlns="http://www.w3.org/2000/svg">
<path d="M213.5 14.5C239.667 6.66666 303.1 -6.00001 347.5 5.99999C391.9 18 613.667 27.6667 719 31C767.333 29.5 865.4 61.8 871 203C876.6 344.2 481.333 261.833 283 203C180.667 179.333 -18.7999 184.5 2.00006 394.5C39.8334 446.833 203.7 535.8 556.5 473" stroke="#151515" stroke-dasharray="14 14"/>
</svg>














