<svg xmlns="http://www.w3.org/2000/svg">

    <symbol viewBox="0 0 57 36" id="logo">      
      <g clip-path="url(#clip0_805_746)">
      <path d="M21.8324 -1.53723e-06L46.9541 25.1149L57 25.1149L31.8736 -1.09831e-06L21.8324 -1.53723e-06Z" />
      <path d="M7.62939e-06 -1.45296e-06L25.1217 25.1149L33.2399 25.1149L8.11813 -1.09811e-06L7.62939e-06 -1.45296e-06Z" />
      <path d="M21.8324 10.8804L46.9542 35.9999L55.3951 35.9999L30.2734 10.8804L21.8324 10.8804Z" />
      <path d="M33.5627 35.9999L8.44101 10.8804L3.05176e-05 10.8804L25.1218 35.9999L33.5627 35.9999Z" />
      </g>
      <defs>
      <clipPath id="clip0_805_746">
      <rect width="36" height="57" fill="white" transform="translate(57) rotate(90)"/>
      </clipPath>
      </defs>
    </symbol>

    <symbol viewBox="0 0 24 24" id="arrow-bot">
      <path d="M5.70711 9.71069C5.31658 10.1012 5.31658 10.7344 5.70711 11.1249L10.5993 16.0123C11.3805 16.7927 12.6463 16.7924 13.4271 16.0117L18.3174 11.1213C18.708 10.7308 18.708 10.0976 18.3174 9.70708C17.9269 9.31655 17.2937 9.31655 16.9032 9.70708L12.7176 13.8927C12.3271 14.2833 11.6939 14.2832 11.3034 13.8927L7.12132 9.71069C6.7308 9.32016 6.09763 9.32016 5.70711 9.71069Z" />
    </symbol>

    <symbol viewBox="0 0 448 512" id="icon3">
    </symbol>

</svg>




