<svg width="101" height="32" viewBox="0 0 101 32" fill="none" xmlns="http://www.w3.org/2000/svg">
<path d="M22.6809 0.212766V31.7872H19.7872V27.3617C18.8794 28.8652 17.6738 30.0142 16.1702 30.8085C14.695 31.6028 13.0213 32 11.1489 32C9.04965 32 7.14894 31.5177 5.44681 30.5532C3.74468 29.5887 2.41135 28.2411 1.44681 26.5106C0.48227 24.7801 0 22.8085 0 20.5957C0 18.383 0.48227 16.4113 1.44681 14.6809C2.41135 12.9504 3.74468 11.617 5.44681 10.6809C7.14894 9.71631 9.04965 9.23404 11.1489 9.23404C12.9645 9.23404 14.5957 9.61702 16.0426 10.383C17.5177 11.1206 18.7234 12.2128 19.6596 13.6596V0.212766H22.6809ZM11.4043 29.3191C12.9645 29.3191 14.3688 28.9645 15.617 28.2553C16.8936 27.5177 17.8865 26.4823 18.5957 25.1489C19.3333 23.8156 19.7021 22.2979 19.7021 20.5957C19.7021 18.8936 19.3333 17.3759 18.5957 16.0426C17.8865 14.7092 16.8936 13.6879 15.617 12.9787C14.3688 12.2411 12.9645 11.8723 11.4043 11.8723C9.8156 11.8723 8.38298 12.2411 7.10638 12.9787C5.85816 13.6879 4.86525 14.7092 4.12766 16.0426C3.41844 17.3759 3.06383 18.8936 3.06383 20.5957C3.06383 22.2979 3.41844 23.8156 4.12766 25.1489C4.86525 26.4823 5.85816 27.5177 7.10638 28.2553C8.38298 28.9645 9.8156 29.3191 11.4043 29.3191Z" fill="white"/>
<path d="M53.624 21.5319H34.9006C35.0708 23.8582 35.9644 25.7447 37.5814 27.1915C39.1984 28.6099 41.241 29.3191 43.7091 29.3191C45.0991 29.3191 46.3757 29.078 47.5388 28.5957C48.702 28.0851 49.7091 27.3475 50.5601 26.383L52.2623 28.3404C51.2694 29.5319 50.0211 30.4397 48.5176 31.0638C47.0424 31.6879 45.4112 32 43.624 32C41.3261 32 39.2835 31.5177 37.4963 30.5532C35.7374 29.5603 34.3615 28.1986 33.3686 26.4681C32.3757 24.7376 31.8793 22.7801 31.8793 20.5957C31.8793 18.4113 32.3474 16.4539 33.2835 14.7234C34.2481 12.9929 35.553 11.6454 37.1984 10.6809C38.8722 9.71631 40.7445 9.23404 42.8154 9.23404C44.8864 9.23404 46.7445 9.71631 48.3899 10.6809C50.0353 11.6454 51.3261 12.9929 52.2623 14.7234C53.1984 16.4255 53.6665 18.383 53.6665 20.5957L53.624 21.5319ZM42.8154 11.8298C40.6594 11.8298 38.8438 12.5248 37.3686 13.9149C35.9218 15.2766 35.0991 17.0638 34.9006 19.2766H50.7729C50.5743 17.0638 49.7374 15.2766 48.2623 13.9149C46.8154 12.5248 44.9998 11.8298 42.8154 11.8298Z" fill="white"/>
<path d="M70.2599 2.55319C68.9549 2.55319 67.962 2.9078 67.2812 3.61702C66.6287 4.32624 66.3024 5.37589 66.3024 6.76596V9.40426H73.1961V11.9574H66.3875V31.7872H63.3663V11.9574H59.3663V9.40426H63.3663V6.6383C63.3663 4.59574 63.9478 2.97872 65.1109 1.78723C66.3024 0.595745 67.9762 0 70.1322 0C70.9833 0 71.806 0.12766 72.6003 0.382979C73.3946 0.60993 74.0613 0.950355 74.6003 1.40425L73.579 3.65958C72.6996 2.92199 71.5932 2.55319 70.2599 2.55319Z" fill="white"/>
<path d="M100.485 9.40426V31.7872H97.5916V27.7021C96.7973 29.0638 95.7051 30.1277 94.315 30.8936C92.9249 31.6312 91.3363 32 89.5491 32C86.6271 32 84.315 31.1915 82.6129 29.5745C80.9391 27.9291 80.1022 25.5319 80.1022 22.383V9.40426H83.1235V22.0851C83.1235 24.4397 83.7051 26.2269 84.8682 27.4468C86.0313 28.6667 87.6909 29.2766 89.8469 29.2766C92.2015 29.2766 94.0597 28.5674 95.4214 27.1489C96.7831 25.7021 97.464 23.7021 97.464 21.1489V9.40426H100.485Z" fill="white"/>
</svg>
