<svg width="32" height="32" viewBox="0 0 32 32" fill="none" xmlns="http://www.w3.org/2000/svg">
<mask id="mask0_189_25568" style="mask-type:luminance" maskUnits="userSpaceOnUse" x="0" y="0" width="32" height="32">
<path d="M32 0H0V32H32V0Z" fill="white"/>
</mask>
<g mask="url(#mask0_189_25568)">
<path d="M26.1383 9.02127C26.6884 8.87387 27.1748 8.54963 27.5225 8.09854C27.8701 7.64745 28.0598 7.09453 28.0622 6.52503V6.51826C28.0622 5.8338 27.7904 5.17737 27.3063 4.69338C26.8223 4.2094 26.1658 3.9375 25.4815 3.9375H25.4748C24.9053 3.93999 24.3526 4.12969 23.9016 4.47734C23.4506 4.82499 23.1263 5.31132 22.979 5.86137C22.5574 7.38859 21.6464 8.73533 20.3859 9.69507C19.1252 10.6548 17.5847 11.1745 16.0003 11.1745C14.416 11.1745 12.8754 10.6548 11.6148 9.69507C10.3542 8.73533 9.44324 7.38859 9.02162 5.86137C8.87414 5.31137 8.54988 4.82511 8.09883 4.47754C7.64778 4.12996 7.09495 3.94035 6.52552 3.93793H6.51875C5.8343 3.93793 5.17786 4.20983 4.69387 4.69382C4.20989 5.1778 3.93799 5.83423 3.93799 6.5187V6.52546C3.94051 7.09489 4.1302 7.64771 4.47786 8.09872C4.82551 8.54971 5.31183 8.87388 5.86186 9.02127C7.38908 9.44288 8.73583 10.3538 9.69555 11.6144C10.6553 12.875 11.175 14.4156 11.175 16C11.175 17.5843 10.6553 19.1249 9.69555 20.3855C8.73583 21.6462 7.38908 22.5571 5.86186 22.9787C5.31186 23.1261 4.82558 23.4502 4.47796 23.9012C4.13033 24.3522 3.94065 24.905 3.93813 25.4743V25.4811C3.93813 26.1656 4.21003 26.8219 4.69402 27.306C5.17802 27.79 5.83443 28.0619 6.5189 28.0619H6.52566C7.09511 28.0594 7.64791 27.8696 8.09892 27.522C8.54991 27.1743 8.87408 26.688 9.02147 26.138C9.44309 24.6108 10.3541 23.2641 11.6146 22.3043C12.8752 21.3445 14.4158 20.8248 16.0002 20.8248C17.5845 20.8248 19.1251 21.3445 20.3857 22.3043C21.6462 23.2641 22.5573 24.6108 22.9789 26.138C23.1262 26.688 23.4504 27.1744 23.9014 27.5222C24.3524 27.8698 24.9053 28.0596 25.4748 28.062H25.4816C26.166 28.062 26.8224 27.79 27.3064 27.306C27.7904 26.8221 28.0624 26.1656 28.0624 25.4812V25.4743C28.0599 24.9048 27.8701 24.3521 27.5225 23.9011C27.1748 23.4501 26.6885 23.126 26.1385 22.9785C24.6113 22.5569 23.2646 21.646 22.3049 20.3854C21.345 19.1247 20.8253 17.5842 20.8253 15.9998C20.8253 14.4155 21.345 12.8749 22.3049 11.6143C23.2646 10.3537 24.6113 9.44275 26.1385 9.02113L26.1383 9.02127Z" fill="white"/>
<path d="M3.37576 1.52742C3.45877 1.60999 3.56545 1.66463 3.68096 1.68375C3.79648 1.70288 3.91507 1.68553 4.02027 1.63412C4.98007 1.1706 6.06002 1.01622 7.11125 1.19225C8.16249 1.36829 9.13323 1.86609 9.88966 2.61701C9.99394 2.72208 10.1348 2.78267 10.2828 2.78605C10.4308 2.78944 10.5744 2.73535 10.6833 2.63515C10.7375 2.58347 10.7807 2.5215 10.8106 2.45286C10.8404 2.38422 10.8563 2.31031 10.8572 2.23546C10.858 2.16061 10.8439 2.08636 10.8157 2.01704C10.7874 1.94772 10.7456 1.88475 10.6927 1.83182C9.77027 0.911661 8.58434 0.301385 7.2994 0.0856567C6.01448 -0.130072 4.69426 0.0594441 3.52191 0.627911C3.4421 0.66749 3.37285 0.72553 3.31995 0.797218C3.26705 0.868905 3.232 0.952174 3.2177 1.04012C3.20342 1.12806 3.2103 1.21814 3.23779 1.30289C3.26528 1.38764 3.31258 1.46461 3.37576 1.52742Z" fill="white"/>
<path d="M0.630084 3.5179C0.0623112 4.68648 -0.128824 6.00245 0.08305 7.28426C0.294923 8.56609 0.899363 9.75056 1.81298 10.6743C1.90905 10.7752 2.03843 10.838 2.17719 10.8509C2.31594 10.8639 2.45469 10.8261 2.56778 10.7447C2.63184 10.6963 2.68479 10.6347 2.72303 10.5641C2.76128 10.4935 2.78394 10.4155 2.78947 10.3354C2.79502 10.2553 2.78331 10.1749 2.75516 10.0997C2.72699 10.0245 2.68303 9.95623 2.62624 9.89947C1.87148 9.14286 1.37069 8.17026 1.19327 7.11639C1.01585 6.06252 1.17058 4.97956 1.63601 4.01755C1.68781 3.91223 1.70544 3.79338 1.68647 3.67757C1.6675 3.56174 1.61286 3.45474 1.53018 3.37146C1.46731 3.30822 1.39028 3.26089 1.30547 3.23338C1.22065 3.2059 1.1305 3.19901 1.0425 3.21333C0.954492 3.22765 0.87117 3.26274 0.799444 3.31572C0.727721 3.36868 0.669659 3.438 0.630084 3.5179Z" fill="white"/>
<path d="M27.9805 30.3654C27.0203 30.8291 25.9401 30.9834 24.8885 30.807C23.8371 30.6308 22.8662 30.1326 22.1098 29.3812C22.0057 29.2767 21.8653 29.2164 21.7178 29.213C21.5703 29.2096 21.4273 29.2634 21.3186 29.3632C21.2641 29.4148 21.2206 29.4768 21.1905 29.5455C21.1606 29.6142 21.1446 29.6882 21.1436 29.7632C21.1426 29.8383 21.1567 29.9127 21.1849 29.9821C21.2132 30.0517 21.2551 30.1147 21.308 30.1677C22.2305 31.0878 23.4164 31.6981 24.7014 31.9139C25.9862 32.1296 27.3065 31.9401 28.4788 31.3716C28.5586 31.332 28.6279 31.274 28.6809 31.2023C28.7337 31.1306 28.7687 31.0474 28.7829 30.9594C28.7972 30.8714 28.7903 30.7813 28.7628 30.6966C28.7353 30.6118 28.6879 30.5349 28.6247 30.4721C28.5418 30.3896 28.4351 30.335 28.3196 30.3159C28.2042 30.2967 28.0856 30.314 27.9805 30.3654Z" fill="white"/>
<path d="M29.3637 21.318C29.2639 21.4267 29.2101 21.5697 29.2135 21.7173C29.2168 21.8647 29.2772 22.0053 29.3817 22.1092C30.1336 22.8662 30.632 23.838 30.8078 24.8903C30.9838 25.9427 30.8285 27.0237 30.3637 27.9841C30.3122 28.0894 30.2948 28.208 30.3138 28.3236C30.3329 28.4393 30.3875 28.5461 30.4702 28.6292C30.5329 28.6924 30.6098 28.7396 30.6945 28.7673C30.7792 28.7948 30.8692 28.8017 30.9571 28.7874C31.045 28.7732 31.1283 28.7383 31.1999 28.6855C31.2716 28.6326 31.3298 28.5635 31.3694 28.4838C31.9396 27.3111 32.1304 25.99 31.9153 24.704C31.7001 23.4178 31.0897 22.2308 30.1689 21.3075C30.1159 21.2544 30.0527 21.2125 29.9832 21.1841C29.9136 21.1557 29.8392 21.1416 29.7642 21.1426C29.689 21.1436 29.615 21.1596 29.5462 21.1899C29.4773 21.22 29.4154 21.2634 29.3637 21.318Z" fill="white"/>
<path d="M30.3648 4.0183C30.8291 4.97854 30.9839 6.05924 30.8078 7.11122C30.6317 8.16319 30.1334 9.13457 29.3817 9.89129C29.2772 9.9953 29.2168 10.1357 29.2135 10.2832C29.2101 10.4307 29.2639 10.5737 29.3637 10.6824C29.4153 10.7368 29.4773 10.7803 29.546 10.8104C29.6147 10.8404 29.6887 10.8564 29.7637 10.8574C29.8387 10.8584 29.913 10.8444 29.9826 10.8162C30.052 10.7879 30.1152 10.7461 30.1682 10.693C31.0887 9.77018 31.6993 8.58361 31.9147 7.29803C32.1302 6.01247 31.9402 4.6917 31.3708 3.51909C31.3312 3.4393 31.2731 3.37013 31.2013 3.31728C31.1296 3.26442 31.0464 3.22943 30.9584 3.2152C30.8706 3.20098 30.7805 3.2079 30.6958 3.23544C30.611 3.26297 30.5341 3.3103 30.4713 3.37351C30.3888 3.45658 30.3341 3.56332 30.3149 3.67887C30.2959 3.79444 30.3133 3.91308 30.3648 4.0183Z" fill="white"/>
<path d="M22.1093 2.61846C22.866 1.86672 23.8373 1.36841 24.8893 1.1923C25.9414 1.01619 27.022 1.17098 27.9823 1.63529C28.0875 1.68682 28.2062 1.70426 28.3217 1.68518C28.4373 1.66612 28.544 1.61147 28.6271 1.52888C28.6903 1.46611 28.7377 1.38917 28.7652 1.30445C28.7927 1.21973 28.7996 1.12966 28.7853 1.04173C28.7712 0.953788 28.7362 0.87051 28.6834 0.798798C28.6305 0.727085 28.5613 0.669003 28.4815 0.629368C27.3088 0.0600108 25.9882 -0.130111 24.7026 0.0853997C23.417 0.300911 22.2304 0.911357 21.3076 1.83198C21.2546 1.88501 21.2127 1.94811 21.1844 2.01757C21.1562 2.08705 21.1421 2.16146 21.1431 2.23644C21.1441 2.31143 21.1601 2.38545 21.1901 2.45415C21.2202 2.52287 21.2636 2.58485 21.3181 2.63646C21.4268 2.73619 21.5698 2.79 21.7174 2.78664C21.8648 2.78329 22.0052 2.72303 22.1093 2.61846Z" fill="white"/>
<path d="M9.89129 29.3814C9.13459 30.133 8.1632 30.6314 7.11123 30.8075C6.05924 30.9836 4.97855 30.8288 4.0183 30.3644C3.91309 30.313 3.79444 30.2956 3.67888 30.3146C3.56332 30.3337 3.45657 30.3884 3.37351 30.4709C3.31031 30.5337 3.26298 30.6106 3.23545 30.6954C3.20792 30.7801 3.20097 30.8702 3.2152 30.9581C3.22944 31.046 3.26443 31.1293 3.31728 31.201C3.37012 31.2727 3.43931 31.3309 3.51908 31.3705C4.69169 31.9398 6.01247 32.1299 7.29804 31.9143C8.58362 31.6989 9.77019 31.0884 10.693 30.1678C10.7461 30.1149 10.7879 30.0516 10.8162 29.9822C10.8444 29.9128 10.8584 29.8384 10.8574 29.7634C10.8564 29.6884 10.8404 29.6143 10.8104 29.5457C10.7803 29.477 10.7368 29.4149 10.6824 29.3634C10.5737 29.2636 10.4307 29.2097 10.2832 29.213C10.1357 29.2165 9.99528 29.2767 9.89129 29.3814Z" fill="white"/>
<path d="M1.63544 27.9818C1.17106 27.0215 1.01623 25.9409 1.19232 24.8889C1.3684 23.8369 1.86672 22.8655 2.61847 22.1088C2.72302 22.0047 2.7833 21.8643 2.78665 21.7169C2.79001 21.5693 2.73618 21.4263 2.63647 21.3176C2.58485 21.2631 2.52286 21.2197 2.45416 21.1896C2.38545 21.1596 2.31142 21.1436 2.23645 21.1426C2.16147 21.1416 2.08704 21.1557 2.01758 21.184C1.94812 21.2122 1.88501 21.2541 1.83199 21.3071C0.911361 22.2299 0.30091 23.4165 0.0853997 24.7021C-0.130111 25.9877 0.0600108 27.3084 0.629368 28.481C0.669001 28.5608 0.727085 28.6301 0.798797 28.6829C0.870511 28.7357 0.953788 28.7707 1.04173 28.7848C1.12966 28.7991 1.21973 28.7922 1.30445 28.7647C1.38917 28.7372 1.4661 28.6898 1.52889 28.6266C1.61146 28.5435 1.6661 28.4368 1.6852 28.3212C1.7043 28.2057 1.6869 28.0871 1.63544 27.9818Z" fill="white"/>
</g>
</svg>
