<svg width="32" height="32" viewBox="0 0 32 32" fill="none" xmlns="http://www.w3.org/2000/svg">
<path d="M16 18.4564C17.3502 18.4564 18.4448 17.3628 18.4448 16.0139C18.4448 14.6649 17.3502 13.5713 16 13.5713C14.6497 13.5713 13.5552 14.6649 13.5552 16.0139C13.5552 17.3628 14.6497 18.4564 16 18.4564Z" fill="white"/>
<path d="M15.9998 22.753C14.2086 22.753 12.5175 22.0488 11.2384 20.7708C9.95882 19.4925 9.25439 17.8029 9.25439 16.0137C9.25439 14.2245 9.95921 12.5346 11.2384 11.2566C12.5179 9.9782 14.209 9.27441 15.9998 9.27441C17.7907 9.27441 19.4822 9.9782 20.7613 11.2566C22.0409 12.535 22.7453 14.2241 22.7453 16.0137C22.7453 16.4489 22.3925 16.8014 21.9569 16.8014C21.5213 16.8014 21.1685 16.4485 21.1685 16.0137C21.1685 13.1663 18.8499 10.8494 15.9995 10.8494C13.149 10.8494 10.8304 13.1659 10.8304 16.0137C10.8304 18.8615 13.149 21.1781 15.9995 21.1781C17.538 21.1781 18.9855 20.5007 19.9706 19.32C20.2493 18.9856 20.7463 18.9407 21.081 19.2191C21.4157 19.4976 21.4606 19.9942 21.1819 20.3286C19.8965 21.8696 18.0075 22.7538 15.9995 22.7538L15.9998 22.753Z" fill="white"/>
<path d="M15.9953 27.4721C14.5462 27.4721 13.1323 27.2075 11.79 26.6853C10.3552 26.1268 9.06892 25.2978 7.96714 24.221C7.65573 23.917 7.65021 23.4184 7.95453 23.1073C8.25885 22.7961 8.7579 22.7906 9.06931 23.0947C12.9774 26.9125 19.2655 26.8424 23.0873 22.9383C24.925 21.0605 25.9207 18.5624 25.8912 15.9036C25.8616 13.2449 24.8099 10.7696 22.9308 8.93315C19.0227 5.11492 12.7345 5.18542 8.91282 9.0895C6.85 11.1973 5.83849 14.0881 6.13887 17.0209C6.18302 17.4538 5.86806 17.8405 5.43484 17.8846C5.00162 17.9287 4.61452 17.6137 4.57037 17.1812C4.22269 13.782 5.39463 10.4313 7.78581 7.98834C8.86315 6.88757 10.1305 6.03019 11.5527 5.43944C12.9233 4.87035 14.3767 4.5734 15.8723 4.55646C17.3691 4.53913 18.8272 4.80418 20.2104 5.34256C21.6453 5.90101 22.9315 6.73004 24.0333 7.80639C25.1351 8.88274 25.9933 10.1489 26.5845 11.5699C27.1542 12.9392 27.4514 14.3913 27.4683 15.8855C27.4849 17.3797 27.2204 18.8377 26.6815 20.2197C26.1225 21.6532 25.2928 22.9383 24.215 24.0391C23.1373 25.1399 21.8704 25.9972 20.4481 26.588C19.0775 27.1571 17.6241 27.454 16.1285 27.471C16.084 27.4714 16.0398 27.4718 15.9953 27.4718V27.4721Z" fill="white"/>
<path d="M15.9931 31.9992C13.9709 31.9992 11.9979 31.6302 10.1251 30.9012C8.12341 30.1222 6.32943 28.9655 4.79247 27.4642C3.2555 25.9625 2.05833 24.1966 1.23407 22.2148C0.439378 20.3039 0.024291 18.2776 0.00103353 16.1926C-0.0222239 14.1077 0.347136 12.0727 1.09926 10.1445C1.87898 8.14463 3.03672 6.35229 4.53939 4.81672C4.84371 4.50559 5.34315 4.50008 5.65417 4.80412C5.96559 5.10816 5.97111 5.60715 5.66679 5.91789C0.0948518 11.6108 0.197343 20.771 5.89503 26.3378C8.63586 29.0155 12.2826 30.4652 16.1614 30.4231C20.0411 30.3798 23.6535 28.8481 26.3336 26.1098C29.0137 23.3715 30.4659 19.7289 30.4226 15.8528C30.3792 11.9766 28.8462 8.36754 26.1054 5.68986C23.0295 2.6845 18.8104 1.21156 14.5306 1.64872C14.0974 1.69282 13.7103 1.37815 13.6662 0.945326C13.622 0.512501 13.937 0.125755 14.3702 0.0816455C16.6912 -0.155443 19.0832 0.126149 21.2879 0.896096C23.4927 1.66604 25.5397 2.93419 27.2075 4.56388C28.7445 6.06557 29.9417 7.83153 30.7659 9.8137C31.5606 11.7246 31.9757 13.7509 31.999 15.8358C32.0222 17.9208 31.6529 19.9557 30.9007 21.884C30.121 23.8839 28.9633 25.6762 27.4606 27.2118C25.9579 28.7473 24.19 29.9434 22.206 30.7669C20.2934 31.5609 18.2652 31.9756 16.1784 31.9988C16.1165 31.9996 16.0546 32 15.9927 32L15.9931 31.9992Z" fill="white"/>
</svg>
