<svg width="88" height="36" viewBox="0 0 88 36" fill="none" xmlns="http://www.w3.org/2000/svg">
<mask id="mask0_189_25530" style="mask-type:luminance" maskUnits="userSpaceOnUse" x="0" y="0" width="88" height="36">
<path d="M87.3011 0H0V35.5753H87.3011V0Z" fill="white"/>
</mask>
<g mask="url(#mask0_189_25530)">
<path d="M0 16.3075V21.8486C24.2111 9.88858 32.2476 48.042 81.3907 24.8346C83.1427 24.0102 84.6367 22.6368 85.6875 20.885C86.738 19.1331 87.2993 17.0798 87.3011 14.9797C33.6846 43.7578 25.3982 3.81533 1.14704 14.4446C0.808749 14.593 0.51861 14.8498 0.314126 15.1819C0.10964 15.514 0.000217833 15.9061 0 16.3075Z" fill="white"/>
<path d="M87.0717 2.3827C70.9826 -5.56495 62.0363 8.61673 43.4224 12.2166C53.9036 14.2435 67.4524 12.9138 87.0717 2.3827Z" fill="white"/>
<path d="M0 12.1483C24.9903 -0.19848 32.7491 40.8488 86.2634 12.6999C86.5736 12.5369 86.8358 12.2805 87.0196 11.9603C87.2031 11.64 87.3008 11.2689 87.3011 10.8901V5.27842C38.6968 31.3658 27.3438 0.981378 7.57983 2.99086C5.50828 3.20083 3.58256 4.25632 2.18033 5.95043C0.7781 7.6445 0.00050283 9.85496 0 12.1483Z" fill="white"/>
<path d="M0.22998 24.9413C16.3158 16.9936 25.2636 31.1753 43.8772 34.7758C33.3936 36.8018 19.8475 35.4724 0.22998 24.9413Z" fill="white"/>
</g>
</svg>
